<svg xmlns="http://www.w3.org/2000/svg" xmlns:xlink="http://www.w3.org/1999/xlink" width="243" height="216" viewBox="0 0 243 216"><defs><path id="9xxxa" d="M923.16 297.12a8 8 0 0 1-7.99 7.98 8 8 0 0 1-7.98-7.98 8 8 0 0 1 7.98-7.99 8 8 0 0 1 7.99 7.99zm6.23.04c0-7.84-6.37-14.22-14.22-14.22a14.24 14.24 0 0 0-14.22 14.22c0 7.85 6.38 14.23 14.22 14.23 7.85 0 14.22-6.43 14.22-14.23zm49.2-44.75c-.05-.04-.1-.04-.15-.1a8 8 0 0 1 5.1-14.13 8 8 0 0 1 8 8 8 8 0 0 1-12.2 6.8c-.28-.19-.52-.38-.75-.57zm-9.27 81.7a73.68 73.68 0 0 0-3.59-15.59 52.56 52.56 0 0 0-1.98-5.15 75.66 75.66 0 0 0-7.37-13.14c.33-3.2.9-6.37 1.7-9.45a65.89 65.89 0 0 1 18.9-32.03c.33.18.66.37 1.04.52a14.24 14.24 0 0 0 19.8-13.09v-.2a55.2 55.2 0 0 1 32.8-1.65c31.37 8.04 49.9 41.96 41.3 75.61a65.73 65.73 0 0 1-21.98 34.83l-80.62-20.65zm45.37 26.04c.23-.8.1-1.65-.33-2.36a3.3 3.3 0 0 0-1.94-1.46l-19.7-5.06h-.05a3 3 0 0 0-2.13.24c-.1.04-.14.04-.19.09-.1 0-.14.05-.19.1-.56.37-1.04.99-1.23 1.7v.09l-2.07 8.08a57.6 57.6 0 0 1-17.2-14.36c.14-2.13.18-4.3.14-6.48l73.43 18.8a57.76 57.76 0 0 1-30.1 8.6h-.52zm-90.35-78.34a63.98 63.98 0 0 1 26.04 20.83c.04.15.09.24.18.34a74.84 74.84 0 0 1 5.49 8.88c.66 1.32 1.27 2.65 1.89 4.02a66.2 66.2 0 0 1 5.34 31.94c-.05.24-.05.42 0 .66-.24 2.84-.71 5.62-1.33 8.37l-84.58 36.76a65.91 65.91 0 0 1-27.22-30.9c-13.85-31.85-.95-68.29 28.82-81.24a54.98 54.98 0 0 1 22.07-4.58 59.1 59.1 0 0 1 23.3 4.92zm35.2 82.88a57.43 57.43 0 0 1-18.9 25.56l-3.35-7.65a3.05 3.05 0 0 0-3.26-1.84c-.29.04-.57.14-.86.23l-18.61 8.08a3.1 3.1 0 0 0-1.61 4.11l3.36 7.66a57.65 57.65 0 0 1-31.62-3.64zm34.73-6.62l13.61 3.5-2.26 8.79c-.05.05-.05.05-.05.1l-10.44 40.77-13.61-3.5zm-61.38 29.87l3.64 8.32c.05.04.05.14.1.18L953.34 435l-12.9 5.63L920 393.56zm7.18 59.68l18.62-8.08a3.07 3.07 0 0 0 1.66-1.7c.28-.8.28-1.66-.05-2.41l-17.06-39.27c13.6-9.88 22.35-24.52 25.38-40.73a62.14 62.14 0 0 0 16.63 12.33l-10.63 41.44c-.43 1.7.61 3.4 2.27 3.83l19.7 5.06c1.7.42 3.4-.62 3.83-2.27l10.54-41.44c30.8 1.04 58.73-20.8 66.95-52.83 9.45-37-11.1-74.33-45.83-83.22a61.8 61.8 0 0 0-35.82 1.6A14.28 14.28 0 0 0 983.5 232a14.24 14.24 0 0 0-11.39 22.73 71.93 71.93 0 0 0-20.18 34.54c-.33 1.42-.66 2.84-.94 4.3a69.43 69.43 0 0 0-24.2-17.48c-16.53-7.14-34.4-7.28-50.37-.33-32.89 14.32-47.25 54.43-32.04 89.45 13.19 30.34 44.19 47.49 74.48 41.54l17.06 39.22a3.13 3.13 0 0 0 2.88 1.89c.42 0 .85-.05 1.27-.24z"/></defs><g><g transform="translate(-838 -232)"><use fill="#49a0d5" xlink:href="#9xxxa"/></g></g></svg>